<svg width="32" height="31" viewBox="0 0 32 31" fill="none" xmlns="http://www.w3.org/2000/svg">
<path d="M22.3035 31C22.0801 31 21.855 30.9785 21.6307 30.9345C21.6246 30.9336 21.6185 30.9327 21.6123 30.9316C21.2878 30.8756 13.5969 29.4954 7.81422 23.6982C3.15263 19.025 1.58021 13.0264 1.11645 10.6275C1.02995 10.3421 0.98026 10.0446 0.968911 9.74238C0.965384 9.70871 0.964464 9.67504 0.966151 9.64152C0.957869 8.6992 1.31704 7.81653 1.98064 7.15127L3.94643 5.18053C4.06145 5.06522 4.21758 5.00034 4.38014 5.00034C4.5427 5.00034 4.69883 5.06522 4.81385 5.18053L11.1751 11.558C11.4148 11.7981 11.4148 12.1876 11.1751 12.4276L9.20966 14.3983C9.15951 14.4486 9.10905 14.4963 9.05752 14.5421C8.13935 15.3594 7.96129 16.7908 8.64437 17.8707C9.3006 18.908 10.043 19.8445 10.8508 20.6543C11.8076 21.6134 12.9429 22.4824 14.2249 23.2365C15.2734 23.8533 16.6215 23.6556 17.5036 22.7557L17.5249 22.7342L19.4907 20.7636C19.7304 20.5233 20.1186 20.5233 20.3581 20.7636L26.7194 27.1409C26.9591 27.3811 26.9591 27.7705 26.7194 28.0105L24.7538 29.9813C24.0956 30.6413 23.2147 31 22.3035 31ZM21.7905 29.7141C21.8074 29.7162 21.8243 29.7188 21.841 29.7224C22.5859 29.8773 23.3505 29.6489 23.8864 29.1118L25.4182 27.576L19.9244 22.0685L18.3749 23.622C17.1017 24.9208 15.1382 25.2002 13.6041 24.2978C12.2321 23.4907 11.014 22.5576 9.98352 21.5244C9.11212 20.6508 8.31295 19.6434 7.60856 18.5297C6.60695 16.9459 6.88009 14.836 8.24425 13.6216C8.2789 13.5911 8.31142 13.5601 8.34332 13.5281L9.87448 11.9931L4.38029 6.48508L2.84821 8.02086C2.41389 8.45643 2.18139 9.03698 2.19335 9.65628C2.19381 9.66304 2.19412 9.66966 2.19427 9.67642C2.20041 9.88798 2.23507 10.0954 2.29733 10.2926C2.30439 10.3152 2.31021 10.3385 2.31466 10.3618C2.74883 12.6264 4.23843 18.3741 8.68179 22.8288C14.016 28.1764 21.2654 29.6158 21.7905 29.7141ZM31.2174 17.0574C30.8786 17.0574 30.6039 16.782 30.6039 16.4424C30.6039 8.05438 23.7968 1.22998 15.4297 1.22998C15.0909 1.22998 14.8163 0.95462 14.8163 0.614991C14.8163 0.275362 15.0909 0 15.4297 0C24.4735 0 31.8308 7.37605 31.8308 16.4424C31.8308 16.782 31.5562 17.0574 31.2174 17.0574ZM27.4109 17.0574C27.0722 17.0574 26.7975 16.782 26.7975 16.4424C26.7975 10.104 21.6539 4.94745 15.3316 4.94745C14.9928 4.94745 14.7181 4.67209 14.7181 4.33246C14.7181 3.99283 14.9928 3.71747 15.3316 3.71747C22.3304 3.71747 28.0244 9.42581 28.0244 16.4424C28.0244 16.782 27.7497 17.0574 27.4109 17.0574ZM23.614 17.0574C23.2752 17.0574 23.0006 16.782 23.0006 16.4424C23.0006 12.2031 19.5602 8.75409 15.3316 8.75409C14.9928 8.75409 14.7181 8.47873 14.7181 8.1391C14.7181 7.79947 14.9928 7.52411 15.3316 7.52411C20.2367 7.52411 24.2275 11.5248 24.2275 16.4424C24.2275 16.782 23.9528 17.0574 23.614 17.0574Z" fill="white"/>
</svg>
