<svg width="31" height="32" viewBox="0 0 31 32" fill="none" xmlns="http://www.w3.org/2000/svg">
<path d="M30.108 19.0574C30.3315 18.0351 30.4504 16.9739 30.4504 15.8848C30.4504 7.71924 23.8307 1.09944 15.6648 1.09944C14.8028 1.09944 13.9581 1.17395 13.1363 1.31574C11.8149 0.483225 10.2515 0 8.5745 0C3.83887 0 0 3.83929 0 8.57419C0 10.1571 0.430617 11.6385 1.17856 12.9113C0.982485 13.8718 0.879468 14.8661 0.879468 15.8847C0.879468 24.0503 7.49906 30.6701 15.6648 30.6701C16.5898 30.6701 17.4945 30.5845 18.3722 30.422C19.5793 31.0707 20.9595 31.4395 22.4256 31.4395C27.1613 31.4395 31 27.6007 31 22.8653C31 21.497 30.678 20.2048 30.108 19.0574ZM23.248 22.9506C22.5639 23.9186 21.5534 24.6856 20.244 25.2299C18.9473 25.7689 17.393 26.0422 15.6237 26.0422C13.5 26.0422 11.7196 25.6687 10.33 24.9315C9.33659 24.3949 8.51739 23.6681 7.89562 22.7713C7.26756 21.8653 6.94897 20.9664 6.94897 20.0996C6.94897 19.5578 7.15647 19.0881 7.56582 18.7037C7.97086 18.3226 8.48993 18.1296 9.10887 18.1296C9.61693 18.1296 10.0551 18.2822 10.4114 18.5832C10.7517 18.8716 11.0438 19.2983 11.2784 19.8494C11.5404 20.4495 11.8261 20.9562 12.1278 21.3553C12.4178 21.7392 12.835 22.0618 13.3678 22.3137C13.9038 22.5675 14.6264 22.6961 15.5152 22.6961C16.7375 22.6961 17.7396 22.4351 18.4935 21.9204C19.2297 21.4177 19.5877 20.8142 19.5877 20.0755C19.5877 19.4918 19.4008 19.0331 19.0166 18.6731C18.6142 18.2968 18.0835 18.0038 17.4389 17.8029C16.7669 17.5935 15.8546 17.3675 14.7263 17.1313C13.1977 16.8039 11.8983 16.4155 10.8634 15.9765C10.8594 15.9749 10.8553 15.9733 10.8514 15.9715C9.79111 15.5205 8.93658 14.8952 8.31146 14.1128C7.67648 13.3182 7.35475 12.3214 7.35475 11.1496C7.35475 10.0327 7.69252 9.02587 8.35872 8.1574C9.01989 7.29502 9.98551 6.62483 11.2286 6.16498C12.4557 5.7112 13.9153 5.48127 15.5669 5.48127C16.8873 5.48127 18.0483 5.63375 19.0172 5.93505C19.9918 6.23854 20.8134 6.64841 21.4589 7.1527C22.1092 7.66076 22.5929 8.20435 22.8967 8.7689C23.2035 9.33911 23.359 9.90659 23.359 10.4555C23.359 10.9838 23.155 11.4639 22.7526 11.8824C22.3477 12.3032 21.8368 12.5169 21.234 12.5169C20.6865 12.5169 20.258 12.3833 19.9605 12.1198C19.6838 11.8752 19.3968 11.4939 19.0781 10.9451C18.7094 10.2447 18.2633 9.69249 17.7514 9.30337C17.2546 8.92547 16.424 8.73358 15.2829 8.73358C14.223 8.73358 13.3611 8.94633 12.7211 9.36594C12.1043 9.77025 11.8047 10.2339 11.8047 10.7831C11.8047 11.1201 11.9011 11.4015 12.0995 11.6438C12.3096 11.9005 12.606 12.1259 12.9806 12.3133C13.3692 12.5086 13.7697 12.6638 14.1708 12.7746C14.5818 12.8886 15.2712 13.0576 16.2167 13.276C17.2129 13.4899 18.1407 13.7254 18.9853 13.9776C19.1549 14.0282 19.3226 14.0795 19.4853 14.1314C20.4699 14.4466 21.3207 14.8353 22.0146 15.2865C22.7228 15.7477 23.2836 16.3401 23.6815 17.0471C24.0805 17.7567 24.2826 18.6329 24.2826 19.6507C24.2824 20.869 23.9343 21.9791 23.248 22.9506Z" fill="white"/>
</svg>
